<svg enable-background="new 0 0 24 24" height="512" viewBox="0 0 24 24" width="512" xmlns="http://www.w3.org/2000/svg"><path d="m12 18c-.276 0-.5-.224-.5-.5v-14c0-.276.224-.5.5-.5s.5.224.5.5v14c0 .276-.224.5-.5.5z"/><path d="m15.5 7.5c-.128 0-.256-.049-.354-.146l-3.146-3.147-3.146 3.147c-.195.195-.512.195-.707 0s-.195-.512 0-.707l3.5-3.5c.195-.195.512-.195.707 0l3.5 3.5c.195.195.195.512 0 .707-.098.097-.226.146-.354.146z"/><path d="m21.5 24h-19c-1.378 0-2.5-1.121-2.5-2.5v-19c0-1.379 1.122-2.5 2.5-2.5h19c1.378 0 2.5 1.121 2.5 2.5v19c0 1.379-1.122 2.5-2.5 2.5zm-19-23c-.827 0-1.5.673-1.5 1.5v19c0 .827.673 1.5 1.5 1.5h19c.827 0 1.5-.673 1.5-1.5v-19c0-.827-.673-1.5-1.5-1.5z"/><path d="m17.5 21h-11c-.827 0-1.5-.673-1.5-1.5v-9c0-.827.673-1.5 1.5-1.5h3c.276 0 .5.224.5.5s-.224.5-.5.5h-3c-.276 0-.5.225-.5.5v9c0 .275.224.5.5.5h11c.276 0 .5-.225.5-.5v-9c0-.275-.224-.5-.5-.5h-3c-.277 0-.5-.224-.5-.5s.223-.5.5-.5h3c.827 0 1.5.673 1.5 1.5v9c0 .827-.673 1.5-1.5 1.5z"/></svg>