<svg enable-background="new 0 0 24 24" height="512" viewBox="0 0 24 24" width="512" xmlns="http://www.w3.org/2000/svg"><path d="m21.25 0h-18.5c-1.517 0-2.75 1.233-2.75 2.75v18.5c0 1.517 1.233 2.75 2.75 2.75h18.5c1.517 0 2.75-1.233 2.75-2.75v-18.5c0-1.517-1.233-2.75-2.75-2.75zm-13.03 6.47 2.859-2.859c.115-.271.351-.466.635-.553.183-.076.39-.076.573 0 .284.087.52.282.635.553l2.858 2.859c.214.214.279.537.163.817s-.39.463-.693.463h-2.25v8.25c0 .552-.448 1-1 1s-1-.448-1-1v-8.25h-2.25c-.303 0-.577-.183-.693-.463s-.052-.603.163-.817zm10.78 12.53c0 1.103-.897 2-2 2h-10c-1.103 0-2-.897-2-2v-8c0-1.103.897-2 2-2h2c.552 0 1 .448 1 1s-.448 1-1 1h-2v8h10v-8h-2c-.552 0-1-.448-1-1s.448-1 1-1h2c1.103 0 2 .897 2 2z"/></svg>